<mxfile host="Electron" agent="Mozilla/5.0 (X11; Linux x86_64) AppleWebKit/537.36 (KHTML, like Gecko) draw.io/26.2.2 Chrome/134.0.6998.178 Electron/35.1.2 Safari/537.36" version="26.2.2">
  <diagram name="페이지-1" id="7Uzg_gREa5HBoRs-v23F">
    <mxGraphModel dx="679" dy="2018" grid="1" gridSize="10" guides="1" tooltips="1" connect="1" arrows="1" fold="1" page="1" pageScale="1" pageWidth="4681" pageHeight="3300" math="0" shadow="0">
      <root>
        <mxCell id="0" />
        <mxCell id="1" parent="0" />
        <mxCell id="b_kXSumLN6QfNQzlvdBn-2" value="" style="edgeStyle=orthogonalEdgeStyle;rounded=0;orthogonalLoop=1;jettySize=auto;html=1;verticalAlign=middle;" edge="1" parent="1" source="wY5Fy5VMoEpxSJH9tn3--11" target="b_kXSumLN6QfNQzlvdBn-1">
          <mxGeometry relative="1" as="geometry" />
        </mxCell>
        <mxCell id="wY5Fy5VMoEpxSJH9tn3--11" value="" style="verticalLabelPosition=bottom;verticalAlign=middle;html=1;shape=mxgraph.flowchart.on-page_reference;strokeColor=#457B9D;fontColor=#1D3557;fillColor=#A8DADC;fontSize=15;" parent="1" vertex="1">
          <mxGeometry x="850" y="80" width="40" height="40" as="geometry" />
        </mxCell>
        <mxCell id="wY5Fy5VMoEpxSJH9tn3--12" value="press_c()" style="text;html=1;align=center;verticalAlign=middle;resizable=0;points=[];autosize=1;strokeColor=none;fillColor=none;fontColor=#1D3557;fontSize=15;" parent="1" vertex="1">
          <mxGeometry x="885" y="85" width="90" height="30" as="geometry" />
        </mxCell>
        <mxCell id="wY5Fy5VMoEpxSJH9tn3--13" value="" style="edgeStyle=orthogonalEdgeStyle;rounded=0;orthogonalLoop=1;jettySize=auto;html=1;strokeColor=#457B9D;fontColor=#1D3557;fillColor=#A8DADC;fontSize=15;verticalAlign=middle;" parent="1" source="wY5Fy5VMoEpxSJH9tn3--14" target="wY5Fy5VMoEpxSJH9tn3--16" edge="1">
          <mxGeometry relative="1" as="geometry" />
        </mxCell>
        <mxCell id="wY5Fy5VMoEpxSJH9tn3--14" value="&lt;div&gt;&lt;span style=&quot;background-color: transparent; color: light-dark(rgb(29, 53, 87), rgb(176, 196, 226));&quot;&gt;self.just_calculated = False&lt;/span&gt;&lt;/div&gt;" style="whiteSpace=wrap;html=1;verticalAlign=middle;fillColor=#A8DADC;strokeColor=#457B9D;fontColor=#1D3557;fontSize=15;" parent="1" vertex="1">
          <mxGeometry x="750" y="460" width="240" height="60" as="geometry" />
        </mxCell>
        <mxCell id="wY5Fy5VMoEpxSJH9tn3--15" value="" style="edgeStyle=orthogonalEdgeStyle;rounded=0;orthogonalLoop=1;jettySize=auto;html=1;strokeColor=#457B9D;fontColor=#1D3557;fillColor=#A8DADC;fontSize=15;verticalAlign=middle;" parent="1" source="wY5Fy5VMoEpxSJH9tn3--16" target="wY5Fy5VMoEpxSJH9tn3--17" edge="1">
          <mxGeometry relative="1" as="geometry" />
        </mxCell>
        <mxCell id="wY5Fy5VMoEpxSJH9tn3--16" value="self.update_display()" style="whiteSpace=wrap;html=1;verticalAlign=middle;fillColor=#A8DADC;strokeColor=#457B9D;fontColor=#1D3557;fontSize=15;" parent="1" vertex="1">
          <mxGeometry x="750" y="540" width="240" height="40" as="geometry" />
        </mxCell>
        <mxCell id="wY5Fy5VMoEpxSJH9tn3--17" value="" style="rounded=1;whiteSpace=wrap;html=1;verticalAlign=middle;fillColor=#A8DADC;strokeColor=#457B9D;fontColor=#1D3557;fontSize=15;" parent="1" vertex="1">
          <mxGeometry x="840" y="620" width="60" height="30" as="geometry" />
        </mxCell>
        <mxCell id="b_kXSumLN6QfNQzlvdBn-4" value="" style="edgeStyle=orthogonalEdgeStyle;rounded=0;orthogonalLoop=1;jettySize=auto;html=1;verticalAlign=middle;" edge="1" parent="1" source="b_kXSumLN6QfNQzlvdBn-1" target="b_kXSumLN6QfNQzlvdBn-3">
          <mxGeometry relative="1" as="geometry" />
        </mxCell>
        <mxCell id="b_kXSumLN6QfNQzlvdBn-6" value="" style="edgeStyle=orthogonalEdgeStyle;rounded=0;orthogonalLoop=1;jettySize=auto;html=1;verticalAlign=middle;" edge="1" parent="1" source="b_kXSumLN6QfNQzlvdBn-1" target="b_kXSumLN6QfNQzlvdBn-5">
          <mxGeometry relative="1" as="geometry" />
        </mxCell>
        <mxCell id="b_kXSumLN6QfNQzlvdBn-1" value="self.current_input" style="rhombus;whiteSpace=wrap;html=1;fontSize=15;verticalAlign=middle;fillColor=#A8DADC;strokeColor=#457B9D;fontColor=#1D3557;" vertex="1" parent="1">
          <mxGeometry x="750" y="170" width="240" height="80" as="geometry" />
        </mxCell>
        <mxCell id="b_kXSumLN6QfNQzlvdBn-9" value="" style="edgeStyle=orthogonalEdgeStyle;rounded=0;orthogonalLoop=1;jettySize=auto;html=1;verticalAlign=middle;" edge="1" parent="1" source="b_kXSumLN6QfNQzlvdBn-3" target="b_kXSumLN6QfNQzlvdBn-8">
          <mxGeometry relative="1" as="geometry" />
        </mxCell>
        <mxCell id="b_kXSumLN6QfNQzlvdBn-10" style="edgeStyle=orthogonalEdgeStyle;rounded=0;orthogonalLoop=1;jettySize=auto;html=1;entryX=0.5;entryY=0;entryDx=0;entryDy=0;" edge="1" parent="1" source="b_kXSumLN6QfNQzlvdBn-3" target="wY5Fy5VMoEpxSJH9tn3--14">
          <mxGeometry relative="1" as="geometry" />
        </mxCell>
        <mxCell id="b_kXSumLN6QfNQzlvdBn-3" value="self.tokens" style="rhombus;whiteSpace=wrap;html=1;fontSize=15;fillColor=#A8DADC;strokeColor=#457B9D;fontColor=#1D3557;verticalAlign=middle;" vertex="1" parent="1">
          <mxGeometry x="750" y="290" width="240" height="80" as="geometry" />
        </mxCell>
        <mxCell id="b_kXSumLN6QfNQzlvdBn-11" style="edgeStyle=orthogonalEdgeStyle;rounded=0;orthogonalLoop=1;jettySize=auto;html=1;entryX=0.5;entryY=0;entryDx=0;entryDy=0;" edge="1" parent="1" source="b_kXSumLN6QfNQzlvdBn-5" target="wY5Fy5VMoEpxSJH9tn3--14">
          <mxGeometry relative="1" as="geometry">
            <Array as="points">
              <mxPoint x="1340" y="210" />
              <mxPoint x="1340" y="420" />
              <mxPoint x="870" y="420" />
            </Array>
          </mxGeometry>
        </mxCell>
        <mxCell id="b_kXSumLN6QfNQzlvdBn-5" value="self.current_input = &quot;&quot;" style="whiteSpace=wrap;html=1;fontSize=15;fillColor=#A8DADC;strokeColor=#457B9D;fontColor=#1D3557;verticalAlign=middle;" vertex="1" parent="1">
          <mxGeometry x="1050" y="170" width="220" height="80" as="geometry" />
        </mxCell>
        <mxCell id="b_kXSumLN6QfNQzlvdBn-12" style="edgeStyle=orthogonalEdgeStyle;rounded=0;orthogonalLoop=1;jettySize=auto;html=1;entryX=0.5;entryY=0;entryDx=0;entryDy=0;" edge="1" parent="1" source="b_kXSumLN6QfNQzlvdBn-8" target="wY5Fy5VMoEpxSJH9tn3--14">
          <mxGeometry relative="1" as="geometry">
            <mxPoint x="870" y="450" as="targetPoint" />
            <Array as="points">
              <mxPoint x="1340" y="330" />
              <mxPoint x="1340" y="420" />
              <mxPoint x="870" y="420" />
            </Array>
          </mxGeometry>
        </mxCell>
        <mxCell id="b_kXSumLN6QfNQzlvdBn-8" value="self.tokens.pop()" style="whiteSpace=wrap;html=1;fontSize=15;fillColor=#A8DADC;strokeColor=#457B9D;fontColor=#1D3557;verticalAlign=middle;" vertex="1" parent="1">
          <mxGeometry x="1050" y="290" width="220" height="80" as="geometry" />
        </mxCell>
      </root>
    </mxGraphModel>
  </diagram>
</mxfile>
